<svg width="650" height="650" viewBox="0 0 650 650" fill="none" xmlns="http://www.w3.org/2000/svg">
<path d="M625 325C625 245.435 593.393 169.129 537.132 112.868C480.871 56.607 404.565 25 325 25C241.132 25.3155 160.632 58.0408 100.333 116.333L25 191.667" stroke="black" stroke-width="50" stroke-linecap="round" stroke-linejoin="round"/>
<path d="M25 25V191.667H191.667" stroke="black" stroke-width="50" stroke-linecap="round" stroke-linejoin="round"/>
<path d="M25 325C25 404.565 56.607 480.871 112.868 537.132C169.129 593.393 245.435 625 325 625C408.868 624.684 489.368 591.959 549.666 533.667L625 458.333" stroke="black" stroke-width="50" stroke-linecap="round" stroke-linejoin="round"/>
<path d="M458.333 458.331H625V624.997" stroke="black" stroke-width="50" stroke-linecap="round" stroke-linejoin="round"/>
<path d="M335.607 165.901L165.901 335.607C154.185 347.322 154.185 366.317 165.901 378.033L271.967 484.099C283.683 495.815 302.678 495.815 314.394 484.099L484.099 314.394C495.815 302.678 495.815 283.683 484.099 271.967L378.033 165.901C366.317 154.185 347.322 154.185 335.607 165.901Z" fill="#FFB133" stroke="black" stroke-width="13" stroke-linecap="round" stroke-linejoin="round"/>
<path d="M243.117 407.53C240.584 404.997 238.409 402.28 236.591 399.38C234.774 396.48 233.536 393.56 232.879 390.621C232.221 387.682 232.27 384.753 233.024 381.833C233.778 378.875 235.46 376.091 238.07 373.481C240.681 370.87 243.455 369.198 246.394 368.463C249.333 367.69 252.281 367.622 255.24 368.26C258.198 368.898 261.118 370.136 263.998 371.973C266.879 373.809 269.586 375.994 272.119 378.527C274.459 380.867 276.498 383.332 278.239 385.923C279.979 388.475 281.236 391.105 282.009 393.811C282.802 396.499 283.063 399.196 282.792 401.903C282.521 404.571 281.487 407.153 279.689 409.647C281.796 411.368 283.894 411.88 285.982 411.184C288.09 410.507 290.429 408.883 293.001 406.311C293.349 405.963 293.716 405.577 294.103 405.151C294.509 404.707 294.934 404.262 295.379 403.817L300.745 409.183C300.222 409.782 299.71 410.352 299.207 410.894C298.724 411.416 298.241 411.919 297.757 412.402C293.852 416.308 289.782 418.579 285.547 419.218C281.332 419.875 277.243 418.705 273.279 415.708C270.843 417.216 268.32 418.077 265.71 418.289C263.08 418.483 260.47 418.154 257.879 417.303C255.288 416.453 252.746 415.167 250.251 413.446C247.738 411.745 245.36 409.772 243.117 407.53ZM249.12 401.526C250.822 403.228 252.649 404.803 254.602 406.253C256.574 407.684 258.546 408.767 260.518 409.502C262.49 410.198 264.433 410.42 266.348 410.169C268.281 409.898 270.099 408.912 271.8 407.211C273.502 405.509 274.478 403.701 274.729 401.787C275 399.854 274.778 397.91 274.062 395.958C273.347 393.966 272.264 391.994 270.814 390.041C269.383 388.069 267.817 386.232 266.116 384.531C264.414 382.829 262.587 381.273 260.634 379.861C258.701 378.43 256.738 377.357 254.747 376.642C252.775 375.907 250.812 375.685 248.859 375.975C246.926 376.246 245.128 377.212 243.465 378.875C240.7 381.64 239.839 384.995 240.884 388.939C241.928 392.883 244.673 397.079 249.12 401.526ZM307.56 353.991C309.706 356.137 311.408 358.322 312.665 360.546C313.941 362.75 314.695 364.973 314.927 367.216C315.159 369.42 314.849 371.625 313.999 373.829C313.148 376.033 311.678 378.179 309.59 380.267C307.483 382.375 305.337 383.844 303.152 384.676C300.986 385.488 298.792 385.787 296.568 385.575C294.345 385.323 292.111 384.56 289.869 383.284C287.645 381.988 285.46 380.267 283.314 378.121L259.01 353.817L265.014 347.814L289.376 372.176C290.323 373.123 291.377 374.041 292.537 374.931C293.678 375.801 294.886 376.468 296.162 376.932C297.458 377.377 298.792 377.473 300.164 377.222C301.518 376.951 302.852 376.159 304.167 374.844C305.462 373.548 306.245 372.224 306.516 370.87C306.767 369.498 306.69 368.164 306.284 366.868C305.878 365.573 305.23 364.345 304.341 363.185C303.432 362.005 302.504 360.942 301.557 359.995L277.195 335.633L283.198 329.629L307.56 353.991ZM350.542 337.982L332.386 356.137L326.992 350.743L332.966 344.768L305.936 317.738L299.961 323.713L294.538 318.289L312.694 300.134L318.117 305.557L311.939 311.735L338.97 338.765L345.147 332.587L350.542 337.982ZM376.325 289.055C377.717 291.375 378.78 293.676 379.515 295.957C380.25 298.239 380.588 300.472 380.53 302.657C380.492 304.822 380.018 306.939 379.109 309.008C378.22 311.058 376.818 313.04 374.904 314.954C372.255 317.603 369.471 319.304 366.551 320.058C363.612 320.793 360.644 320.841 357.647 320.203C354.65 319.527 351.721 318.279 348.86 316.462C345.998 314.606 343.301 312.411 340.768 309.878C338.235 307.346 336.04 304.648 334.184 301.787C332.347 298.906 331.1 295.996 330.443 293.057C329.805 290.099 329.834 287.189 330.53 284.327C331.207 281.446 332.831 278.72 335.402 276.149C336.234 275.317 337.181 274.582 338.245 273.944C339.308 273.306 340.429 272.842 341.609 272.552C342.769 272.243 343.939 272.137 345.118 272.233C346.317 272.311 347.448 272.649 348.511 273.248L344.045 268.782L349.469 263.359L363.796 277.686L358.372 283.109C357.193 281.93 355.888 280.915 354.457 280.064C353.007 279.194 351.518 278.633 349.991 278.382C348.463 278.13 346.936 278.208 345.408 278.614C343.881 279.02 342.46 279.88 341.145 281.195C339.443 282.896 338.467 284.704 338.216 286.618C337.964 288.533 338.187 290.495 338.883 292.506C339.579 294.517 340.633 296.499 342.044 298.451C343.475 300.385 345.041 302.202 346.742 303.904C348.444 305.605 350.271 307.181 352.224 308.631C354.196 310.062 356.178 311.135 358.169 311.851C360.141 312.547 362.094 312.759 364.028 312.489C365.961 312.218 367.779 311.232 369.48 309.53C371.936 307.075 373.038 304.407 372.787 301.526C372.555 298.625 371.51 295.455 369.654 292.013L376.325 289.055ZM419.567 268.956L412.549 275.975L384.997 268.26L385.461 273.712L400.136 288.388L394.132 294.391L356.284 256.543L362.288 250.539L377.137 265.389L374.063 238.764L381.777 231.05L384.271 259.936L419.567 268.956Z" fill="black"/>
</svg>
